<svg id="SvgjsSvg1001" width="256" height="256" xmlns="http://www.w3.org/2000/svg" version="1.1" xmlns:xlink="http://www.w3.org/1999/xlink" xmlns:svgjs="http://svgjs.com/svgjs"><defs id="SvgjsDefs1002"></defs><g id="SvgjsG1008"><svg xmlns="http://www.w3.org/2000/svg" fill="none" viewBox="0 0 24 24" width="256" height="256"><path fill="#111111" fill-rule="evenodd" d="M12 2.75C10.3139 2.75 8.73533 3.20043 7.37554 3.98703C7.017 4.19443 6.5582 4.07191 6.3508 3.71337C6.14339 3.35482 6.26591 2.89602 6.62446 2.68862C8.2064 1.77351 10.0432 1.25 12 1.25C17.9371 1.25 22.75 6.06294 22.75 12C22.75 17.9371 17.9371 22.75 12 22.75C6.06294 22.75 1.25 17.9371 1.25 12C1.25 10.0432 1.77351 8.2064 2.68862 6.62446C2.89602 6.26591 3.35482 6.14339 3.71337 6.3508C4.07191 6.5582 4.19443 7.017 3.98703 7.37554C3.20043 8.73533 2.75 10.3139 2.75 12C2.75 17.1086 6.89137 21.25 12 21.25C17.1086 21.25 21.25 17.1086 21.25 12C21.25 6.89137 17.1086 2.75 12 2.75Z" clip-rule="evenodd" class="color111 svgShape"></path><path fill="#111111" fill-rule="evenodd" d="M16 11.25C16.4142 11.25 16.75 11.5858 16.75 12C16.75 14.6234 14.6234 16.75 12 16.75C9.37665 16.75 7.25 14.6234 7.25 12C7.25 9.37665 9.37665 7.25 12 7.25C12.8639 7.25 13.6761 7.48133 14.3755 7.88592C14.7341 8.09333 14.8566 8.55213 14.6492 8.91067C14.4418 9.26922 13.983 9.39174 13.6245 9.18433C13.1472 8.90825 12.5932 8.75 12 8.75C10.2051 8.75 8.75 10.2051 8.75 12C8.75 13.7949 10.2051 15.25 12 15.25C13.7949 15.25 15.25 13.7949 15.25 12C15.25 11.5858 15.5858 11.25 16 11.25Z" clip-rule="evenodd" class="color111 svgShape"></path></svg></g></svg>